<svg width="117" height="87" viewBox="0 0 117 87" fill="none" xmlns="http://www.w3.org/2000/svg">
<g clip-path="url(#clip0_9_34)">
<path d="M100.673 50.0766C96.6031 50.0975 93.0654 51.0694 90.1035 52.5063C89.0163 50.3721 87.9295 48.4708 87.738 47.076C87.5246 45.4493 87.2691 44.4561 87.5246 42.5122C87.7805 40.5683 88.9313 37.8001 88.9098 37.589C88.8888 37.3778 88.6539 36.3846 86.3099 36.3637C83.9659 36.3424 81.9413 36.8073 81.7069 37.42C81.4725 38.0326 81.025 39.4273 80.7266 40.8637C80.3217 42.9771 76.0386 50.5198 73.5882 54.471C72.7994 52.9291 72.1175 51.5765 71.9681 50.499C71.7551 48.8722 71.4992 47.879 71.7551 45.9351C72.011 43.9912 73.1618 41.2235 73.1403 41.0119C73.1188 40.8007 72.8844 39.8075 70.5404 39.7866C68.1959 39.7653 66.1714 40.2302 65.9374 40.8429C65.7029 41.4559 65.447 42.8923 64.9571 44.2871C64.4667 45.6818 58.777 58.275 57.2853 61.5285C56.6825 62.8453 56.0501 64.1487 55.3887 65.4376C55.3887 65.4376 55.3672 65.501 55.3032 65.6066C55.0954 66.0107 54.8825 66.4122 54.6643 66.811V66.8318C54.3444 67.4028 54.0035 67.9307 53.833 67.9307C53.7051 67.9307 53.4706 66.4095 53.8755 64.3387C54.7279 59.9652 56.7524 53.1615 56.7314 52.9291C56.7314 52.8022 57.1148 51.6191 55.4102 51.006C53.7476 50.3934 53.1512 51.4075 53.0018 51.4075C52.8528 51.4075 52.7458 51.7668 52.7458 51.7668C52.7458 51.7668 54.6004 44.118 49.2086 44.118C45.8418 44.118 41.1959 47.7734 38.8944 51.0694C36.278 52.4811 33.664 53.8968 31.0521 55.3166C29.7953 56.0139 28.4951 56.7113 27.2804 57.3661C27.1949 57.2818 27.1099 57.1758 27.0245 57.0915C20.5034 50.1822 8.44206 45.3012 8.95345 36.0257C9.1454 32.6449 10.3172 23.7705 32.1178 12.9947C50.0609 4.22583 64.3392 6.65549 66.8112 12.0436C70.3484 19.7349 59.1609 34.0183 40.6205 36.0887C33.5455 36.8708 29.8374 34.1661 28.9 33.152C27.9198 32.0953 27.7703 32.0318 27.4079 32.2435C26.8115 32.5606 27.1949 33.5113 27.4079 34.0605C27.9623 35.4969 30.2423 38.0326 34.0994 39.2796C37.5092 40.378 45.7988 40.991 55.8361 37.1454C67.0666 32.8348 75.8467 20.8546 73.2682 10.8183C70.6893 0.633908 53.6411 -2.72556 37.5092 2.95799C27.9198 6.33921 17.5201 11.6634 10.0402 18.594C1.15369 26.834 -0.252978 33.997 0.322395 36.9976C2.3899 47.6465 17.2006 54.5771 23.1248 59.7114C22.8264 59.8804 22.549 60.0286 22.315 60.1555C19.3527 61.6132 8.05818 67.4658 5.24529 73.6568C2.04897 80.6716 5.75714 85.7009 8.20762 86.3765C15.8154 88.4686 23.6362 84.7076 27.8343 78.4953C32.0324 72.2834 31.521 64.2119 29.5819 60.5144C29.5604 60.4722 29.5394 60.4296 29.4964 60.3875C30.2638 59.9439 31.0521 59.479 31.8194 59.0354C33.2297 58.2088 34.6579 57.4126 36.103 56.6474C35.3781 58.6126 34.8453 60.958 34.5898 64.3387C34.2699 68.3113 35.9105 73.4665 38.0631 75.4947C39.0223 76.3828 40.1516 76.4037 40.8764 76.4037C43.3909 76.4037 44.5206 74.3329 45.7778 71.8819C47.312 68.8818 48.6972 65.3954 48.6972 65.3954C48.6972 65.3954 46.9711 74.8191 51.6595 74.8191C53.3642 74.8191 55.0903 72.6214 55.8576 71.5017V71.5226C55.8576 71.5226 55.9001 71.4592 55.9856 71.3114C56.156 71.0368 56.2625 70.8674 56.2625 70.8674V70.8257C56.9444 69.6421 58.479 66.9587 60.759 62.5004C63.6999 56.7534 66.5342 49.5696 66.5342 49.5696C66.5342 49.5696 66.7901 51.3232 67.6635 54.239C68.1753 55.9505 69.2402 57.831 70.0929 59.648C69.4111 60.5991 68.9847 61.127 68.9847 61.127L69.0062 61.1483C68.4518 61.8665 67.8554 62.6481 67.1946 63.4094C64.8716 66.1558 62.1017 69.3045 61.7178 70.2126C61.2699 71.2901 61.3769 72.0722 62.2297 72.7062C62.8475 73.1711 63.9553 73.234 65.0851 73.1711C67.1736 73.0229 68.6438 72.5158 69.3681 72.1991C70.4979 71.7976 71.8191 71.1846 73.0548 70.276C75.3353 68.6067 76.72 66.2192 76.5925 63.0714C76.5285 61.3386 75.9532 59.6059 75.2498 57.9787C75.4633 57.6833 75.6547 57.3874 75.8682 57.0915C79.4694 51.8724 82.2613 46.1462 82.2613 46.1462C82.2613 46.1462 82.5172 47.8998 83.3905 50.8161C83.8169 52.2951 84.6907 53.901 85.4576 55.4643C82.0693 58.1903 79.9808 61.3594 79.2349 63.4302C77.8927 67.2759 78.9365 69.0082 80.9186 69.4097C81.8134 69.6 83.0921 69.1772 84.0299 68.7757C85.2231 68.3956 86.6298 67.7408 87.9725 66.7684C90.253 65.0995 92.4475 62.775 92.3195 59.6272C92.2556 58.1903 91.8721 56.7743 91.3393 55.4009C94.2161 54.2182 97.9243 53.563 102.655 54.1122C112.799 55.2953 114.802 61.5706 114.418 64.2123C114.035 66.8531 111.904 68.29 111.201 68.7336C110.497 69.1777 110.263 69.3254 110.327 69.6421C110.412 70.107 110.753 70.0862 111.35 70.0014C112.181 69.8537 116.678 67.8672 116.869 63.0075C117.189 56.7956 111.222 50.0132 100.673 50.0766ZM22.4215 76.2346C19.0543 79.8687 14.3663 81.2421 12.3417 80.0803C10.1682 78.8333 11.0205 73.4665 15.1546 69.6213C17.6691 67.2759 20.9083 65.0991 23.0608 63.7683C23.5508 63.4724 24.2756 63.0501 25.1494 62.5217C25.2984 62.437 25.3838 62.3948 25.3838 62.3948L25.8952 62.0776C27.4079 67.5713 25.9592 72.4103 22.4215 76.2346ZM46.9286 59.7114C45.7563 62.543 43.3059 69.7903 41.8142 69.3888C40.5355 69.0508 39.7467 63.5571 41.5583 58.1269C42.4746 55.4009 44.4137 52.147 45.5434 50.8796C47.376 48.8509 49.4005 48.1744 49.8904 48.9991C50.5088 50.0766 47.6529 57.9365 46.9286 59.7114ZM67.1521 69.3041C66.6617 69.5578 66.1933 69.7269 65.9799 69.6C65.8309 69.5153 66.1933 69.1772 66.1933 69.1772C66.1933 69.1772 68.7292 66.473 69.7305 65.2473C70.3064 64.5291 70.9878 63.684 71.7126 62.7329V63.0075C71.7126 66.2405 68.5583 68.4169 67.1516 69.3041H67.1521ZM82.7512 65.7756C82.3888 65.5219 82.4527 64.6768 83.6675 62.0355C84.1364 61.0001 85.2441 59.2678 87.1412 57.5985C87.3542 58.2746 87.5036 58.9298 87.4821 59.5424C87.4606 63.6205 84.5202 65.1417 82.7512 65.7756Z" fill="#CD6799"/>
</g>
<defs>
<clipPath id="clip0_9_34">
<rect width="117" height="87" fill="white"/>
</clipPath>
</defs>
</svg>
