<svg width="120" height="120" viewBox="0 0 120 120" fill="none" xmlns="http://www.w3.org/2000/svg">
<path d="M7.5 7.5H112.5V112.5H7.5V7.5Z" fill="#F5DE19"/>
<path d="M78.0337 89.5312C78.9284 91.3485 80.3183 92.8759 82.0434 93.9375C83.7684 94.9991 85.7583 95.5515 87.7837 95.5313C91.8712 95.5313 94.485 93.4875 94.485 90.6562C94.485 87.2812 91.8 86.0738 87.3 84.105L84.8325 83.0475C77.7075 80.0138 72.9825 76.215 72.9825 68.1825C72.9825 60.7838 78.6075 55.1475 87.4312 55.1475C90.2876 54.9412 93.1415 55.5805 95.637 56.9856C98.1324 58.3907 100.159 60.4994 101.464 63.0488L93.75 67.98C93.2476 66.716 92.3728 65.6345 91.2416 64.879C90.1104 64.1236 88.7763 63.7298 87.4162 63.75C86.8228 63.6906 86.2236 63.7555 85.6566 63.9404C85.0897 64.1254 84.5675 64.4265 84.1233 64.8244C83.6792 65.2224 83.3228 65.7085 83.0768 66.2518C82.8309 66.7951 82.7009 67.3837 82.695 67.98C82.695 70.9388 84.5287 72.1388 88.7625 73.98L91.23 75.0375C99.615 78.6338 104.355 82.2975 104.355 90.5363C104.355 99.42 97.3762 104.287 88.005 104.287C84.3536 104.52 80.713 103.691 77.5223 101.901C74.3317 100.11 71.7274 97.4342 70.0237 94.1963L78.0337 89.5312ZM43.1775 90.3863C44.7262 93.135 46.1362 95.46 49.5262 95.46C52.7662 95.46 54.8137 94.1925 54.8137 89.2612V55.71H64.68V89.3925C64.68 99.6075 58.68 104.257 49.9462 104.257C46.8591 104.426 43.7931 103.657 41.1513 102.051C38.5096 100.444 36.4157 98.0761 35.145 95.2575L43.1775 90.3863Z" fill="black"/>
</svg>
